Coordinates
version=1
nRows=14
nColumns=40
inDegrees=yes

Units are S.I. units (second, meters, Newtons, ...)
If the header above contains a line with 'inDegrees', this indicates whether rotational values are in degrees (yes) or radians (no).

endheader
time	pelvis_tilt	pelvis_list	pelvis_rotation	pelvis_tx	pelvis_ty	pelvis_tz	hip_flexion_r	hip_adduction_r	hip_rotation_r	knee_angle_r	knee_angle_r_beta	ankle_angle_r	subtalar_angle_r	mtp_angle_r	hip_flexion_l	hip_adduction_l	hip_rotation_l	knee_angle_l	knee_angle_l_beta	ankle_angle_l	subtalar_angle_l	mtp_angle_l	lumbar_extension	lumbar_bending	lumbar_rotation	arm_flex_r	arm_add_r	arm_rot_r	elbow_flex_r	pro_sup_r	wrist_flex_r	wrist_dev_r	arm_flex_l	arm_add_l	arm_rot_l	elbow_flex_l	pro_sup_l	wrist_flex_l	wrist_dev_l
      3.07500000	    -13.12908389	      2.60726899	     -0.25118104	     -0.30706917	      0.91804097	     -0.99338776	     22.00836708	     -6.54193146	      0.75272811	     86.52768783	      1.51019305	     -1.28191450	      0.00000000	      0.00000000	     45.45624514	      2.01502217	     -7.42751419	     60.69796127	      1.05937927	     18.01529567	      0.00000000	      0.00000000	     -0.91012608	     -7.58323341	     -5.91567789	     89.91654198	     -4.24312692	     47.45936673	     49.10833662	     83.52012541	      0.00000000	      0.00000000	     89.93243523	    -19.26090017	     47.78928735	     53.58449435	     87.24355041	      0.00000000	      0.00000000
      3.08000000	    -13.14488320	      2.62294942	     -0.18809827	     -0.30708298	      0.91731273	     -0.99352285	     22.07910726	     -6.58781814	      0.69450436	     86.64013762	      1.51215567	     -1.20939233	      0.00000000	      0.00000000	     45.55009171	      2.05199041	     -7.40281848	     60.85899304	      1.06218981	     18.04913813	      0.00000000	      0.00000000	     -0.96406268	     -7.60619065	     -6.03521701	     89.91685254	     -4.24887508	     47.58909012	     49.27110136	     82.82585710	      0.00000000	      0.00000000	     89.93256475	    -19.34464141	     47.76257504	     53.73627646	     87.08890886	      0.00000000	      0.00000000
      3.08500000	    -13.22213137	      2.60059131	     -0.18611564	     -0.30738691	      0.91653385	     -0.99354531	     22.26793284	     -6.58170217	      0.65705746	     86.77694956	      1.51454348	     -1.26519350	      0.00000000	      0.00000000	     45.72756814	      1.98095154	     -7.50077483	     61.02501146	      1.06508738	     18.13018023	      0.00000000	      0.00000000	     -0.94180164	     -7.60321686	     -6.05012775	     89.91642203	     -4.13602658	     47.25376796	     49.04081902	     84.49035539	      0.00000000	      0.00000000	     89.93304442	    -19.30933593	     47.74079603	     53.63283985	     87.07693386	      0.00000000	      0.00000000
      3.09000000	    -13.36911627	      2.60099312	     -0.06686314	     -0.30776189	      0.91575855	     -0.99373692	     22.51292120	     -6.64837671	      0.52849348	     86.88525739	      1.51643381	     -1.35993971	      0.00000000	      0.00000000	     45.97875573	      2.03987642	     -7.46402831	     61.14526052	      1.06718612	     18.18424733	      0.00000000	      0.00000000	     -0.88541076	     -7.61890546	     -6.19947185	     89.91686668	     -4.22643362	     47.50214016	     49.25420005	     82.84317608	      0.00000000	      0.00000000	     89.93340367	    -19.40311941	     47.78436155	     53.81511978	     86.94222619	      0.00000000	      0.00000000
      3.09500000	    -13.39295486	      2.59403413	     -0.09909907	     -0.30780223	      0.91509083	     -0.99381473	     22.61121645	     -6.64055418	      0.55804039	     87.00323639	      1.51849293	     -1.32284520	      0.00000000	      0.00000000	     46.07558487	      1.99135816	     -7.48330716	     61.30189709	      1.06991994	     18.17955996	      0.00000000	      0.00000000	     -0.88805334	     -7.62318665	     -6.14502147	     89.91660036	     -4.12347577	     47.22375192	     48.97080921	     84.34223915	      0.00000000	      0.00000000	     89.93338969	    -19.27463401	     47.66794111	     53.63473183	     87.10331420	      0.00000000	      0.00000000
      3.10000000	    -13.48408954	      2.63281533	     -0.03483248	     -0.30794428	      0.91432992	     -0.99401969	     22.78007402	     -6.75795693	      0.46361742	     87.10300529	      1.52023423	     -1.36029673	      0.00000000	      0.00000000	     46.23396209	      2.05646983	     -7.50443206	     61.41881475	      1.07196054	     18.29329370	      0.00000000	      0.00000000	     -0.83977509	     -7.67723850	     -6.19100401	     89.91546049	     -4.09885249	     47.23712459	     48.95465719	     82.22198965	      0.00000000	      0.00000000	     89.93452278	    -19.20398608	     47.91669858	     53.50751773	     85.24415961	      0.00000000	      0.00000000
      3.10500000	    -13.53844414	      2.51843725	      0.11240047	     -0.30827088	      0.91359398	     -0.99410042	     22.88840394	     -6.67772294	      0.29504610	     87.20071023	      1.52193950	     -1.36319568	      0.00000000	      0.00000000	     46.41688173	      1.99900173	     -7.45750369	     61.61915097	      1.07545707	     18.29921388	      0.00000000	      0.00000000	     -0.88343619	     -7.58871037	     -6.36424656	     89.91661633	     -4.11887517	     47.13693308	     48.97441687	     84.47416771	      0.00000000	      0.00000000	     89.93396131	    -19.16226203	     47.52299771	     53.49435316	     87.06081702	      0.00000000	      0.00000000
      3.11000000	    -13.62215160	      2.56843092	      0.06683920	     -0.30835581	      0.91284728	     -0.99412183	     23.06592341	     -6.72752831	      0.34657542	     87.30605011	      1.52377803	     -1.36243193	      0.00000000	      0.00000000	     46.58178896	      1.98959959	     -7.50288874	     61.78546293	      1.07835976	     18.31058447	      0.00000000	      0.00000000	     -0.84421930	     -7.66938318	     -6.30812338	     89.91639117	     -4.17313025	     47.16997347	     49.07424254	     83.89598090	      0.00000000	      0.00000000	     89.93418903	    -19.03503629	     47.40984874	     53.35216613	     87.16005422	      0.00000000	      0.00000000
      3.11500000	    -13.68030927	      2.59696409	      0.11666425	     -0.30850499	      0.91220001	     -0.99428134	     23.19450692	     -6.82457136	      0.26914639	     87.38690033	      1.52518913	     -1.43154325	      0.00000000	      0.00000000	     46.72842162	      2.01165975	     -7.57640478	     61.93443982	      1.08095990	     18.34742217	      0.00000000	      0.00000000	     -0.84673385	     -7.69881797	     -6.40494239	     89.91587258	     -4.06751392	     47.12774094	     48.93695344	     83.67531121	      0.00000000	      0.00000000	     89.93449007	    -19.16740737	     47.45138641	     53.47614179	     87.22964458	      0.00000000	      0.00000000
      3.12000000	    -13.76053055	      2.61501790	      0.22825234	     -0.30861499	      0.91145926	     -0.99442416	     23.32324321	     -6.88843525	      0.18988167	     87.45460544	      1.52637081	     -1.44357079	      0.00000000	      0.00000000	     46.89940698	      2.06262573	     -7.57823559	     62.08775007	      1.08363566	     18.39975638	      0.00000000	      0.00000000	     -0.81194982	     -7.78951240	     -6.49325750	     89.91573373	     -4.10462681	     47.13688151	     48.82085152	     81.66299475	      0.00000000	      0.00000000	     89.93543355	    -18.99479256	     47.67756142	     53.33140784	     85.38459946	      0.00000000	      0.00000000
      3.12500000	    -13.82289892	      2.61850070	      0.23753699	     -0.30881918	      0.91071949	     -0.99445771	     23.45498751	     -6.91793780	      0.13043787	     87.52940537	      1.52767632	     -1.45201473	      0.00000000	      0.00000000	     47.05838901	      2.02639203	     -7.63085668	     62.24602223	      1.08639803	     18.38129289	      0.00000000	      0.00000000	     -0.80884622	     -7.78055907	     -6.50071303	     89.91628533	     -4.09155184	     47.02535382	     48.87334964	     84.21743246	      0.00000000	      0.00000000	     89.93484840	    -19.00060767	     47.35204654	     53.32231000	     87.11604041	      0.00000000	      0.00000000
      3.13000000	    -13.85824441	      2.51496135	      0.27983981	     -0.30891825	      0.91004178	     -0.99448645	     23.54734859	     -6.83430983	      0.05128176	     87.60575573	      1.52900888	     -1.42260167	      0.00000000	      0.00000000	     47.19174253	      1.93551236	     -7.58258468	     62.43820426	      1.08975224	     18.44865997	      0.00000000	      0.00000000	     -0.82760728	     -7.68592353	     -6.61240198	     89.91685392	     -4.03651655	     47.25482259	     48.91054547	     83.14705325	      0.00000000	      0.00000000	     89.93508612	    -19.11033414	     47.31924913	     53.45186912	     86.93372300	      0.00000000	      0.00000000
      3.13500000	    -13.93375343	      2.62050629	      0.33150106	     -0.30907679	      0.90938012	     -0.99464163	     23.69998868	     -7.01465497	      0.00925986	     87.69309844	      1.53053330	     -1.44830989	      0.00000000	      0.00000000	     47.33908738	      2.02517840	     -7.67540531	     62.54257087	      1.09157378	     18.44689461	      0.00000000	      0.00000000	     -0.80975751	     -7.82534406	     -6.63482520	     89.91621658	     -4.04710107	     47.10536072	     48.75461775	     84.29023452	      0.00000000	      0.00000000	     89.93533722	    -18.99751580	     47.23767777	     53.31292933	     87.08916623	      0.00000000	      0.00000000
      3.14000000	    -14.04941704	      2.69664829	      0.33617332	     -0.30931877	      0.90864945	     -0.99466740	     23.92639201	     -7.12264892	      0.03564973	     87.79321327	      1.53228063	     -1.53241629	      0.00000000	      0.00000000	     47.53542431	      2.03879051	     -7.81437501	     62.67185689	      1.09383025	     18.44211862	      0.00000000	      0.00000000	     -0.74532862	     -7.94029977	     -6.65553699	     89.91621249	     -4.02648567	     47.08192804	     48.71287431	     84.40990607	      0.00000000	      0.00000000	     89.93558130	    -18.99554627	     47.16860230	     53.33640734	     87.04513194	      0.00000000	      0.00000000
